
                <svg xmlns="http://www.w3.org/2000/svg" xmlns:xlink="http://www.w3.org/1999/xlink" width="1607" height="819">
                
            <g>
                <rect x="50" y="80" width="323" height="30" style="fill:#a5d6a7; stroke:#444; stroke-width:1"></rect>
                    
                <line x1="60" y1="80" x2="60" y2="110" style="fill:#a5d6a7; stroke:#444; stroke-width:1"></line>
                <line x1="363" y1="80" x2="363" y2="110" style="fill:#a5d6a7; stroke:#444; stroke-width:1"></line>
             
                <title>function indexSearch(list, element)</title>
            <text x="75" y="100" font-family="monospace" font-size="13" fill="#222">
                <tspan x="75" y="100">function indexSearch(list, element)</tspan>
            </text>
                
            </g>
                <g>
                   <rect x="87" y="128.5" width="108" height="30" rx="3" ry="3" style="fill:#90caf9; stroke:#444; stroke-width:1"></rect>
                   <title>let lc = 0</title>
            <text x="102" y="148.5" font-family="monospace" font-size="13" fill="#222">
                <tspan x="102" y="148.5">let lc = 0</tspan>
            </text>
                   
                   
                </g><g>

            <rect x="117" y="212" width="91.2" height="30" rx="3" ry="3" style="fill:#b39ddb; stroke:#444; stroke-width:1"></rect>
            <polygon points="87,227 117,197 147,227 117,257" style="fill:#b39ddb; stroke:#444; stroke-width:1"></polygon>
                
            <title>!eof</title>
            <text x="162" y="232" font-family="monospace" font-size="13" fill="#222">
                <tspan x="162" y="232">!eof</tspan>
            </text>
            
            <text x="97.5" y="232" font-family="monospace" font-size="13" fill="#222">while</text>
        </g>
                <g>
                   <rect x="137" y="267" width="170.4" height="30" rx="2" ry="2" style="fill:#C5E1A5; stroke:#444; stroke-width:1"></rect>
                   <title>parseInstruction()</title>
            <text x="152" y="287" font-family="monospace" font-size="13" fill="#222">
                <tspan x="152" y="287">parseInstruction()</tspan>
            </text>
                   
                   
                </g><g>
            <rect x="167" y="330.5" width="153.6" height="30" rx="3" ry="3" style="fill:#ce93d8; stroke:#444; stroke-width:1"></rect>                
            <polygon points="137,345.5 167,315.5 197,345.5 167,375.5" style="fill:#ce93d8; stroke:#444; stroke-width:1"></polygon>
            <title>(labelFound)</title>
            <text x="212" y="350.5" font-family="monospace" font-size="13" fill="#222">
                <tspan x="212" y="350.5">(labelFound)</tspan>
            </text>
            
            <text x="159.2" y="350.5" font-family="monospace" font-size="13" fill="#222">if</text> <text x="174.8" y="377.45" font-family="monospace" font-size="13" fill="#222">+</text> 
        </g><g>
            <rect x="217" y="400.5" width="231.60000000000002" height="30" rx="3" ry="3" style="fill:#ce93d8; stroke:#444; stroke-width:1"></rect>                
            <polygon points="187,415.5 217,385.5 247,415.5 217,445.5" style="fill:#ce93d8; stroke:#444; stroke-width:1"></polygon>
            <title>(label in symbolTable)</title>
            <text x="262" y="420.5" font-family="monospace" font-size="13" fill="#222">
                <tspan x="262" y="420.5">(label in symbolTable)</tspan>
            </text>
            
            <text x="209.2" y="420.5" font-family="monospace" font-size="13" fill="#222">if</text> <text x="224.8" y="447.45" font-family="monospace" font-size="13" fill="#222">+</text> <text x="452.5" y="413.55" font-family="monospace" font-size="13" fill="#222">-</text>
        </g>
            <g>
                <rect x="237" y="455.5" width="123.6" height="30" rx="3" ry="3" style="fill:#90caf9; stroke:#444; stroke-width:1"></rect>
                
                <line x1="360.6" y1="465.5" x2="365.6" y2="465.5" style="fill:#a5d6a7; stroke:#444; stroke-width:1"></line>
                
                <line x1="360.6" y1="475.5" x2="365.6" y2="475.5" style="fill:#a5d6a7; stroke:#444; stroke-width:1"></line>

                <path d="M365.6, 459.5 L381.6, 470.5 L365.6, 481.5 Z" fill="#a5d6a7" stroke="#444" stroke-width="1"></path>
                             
                <title>return false</title>
            <text x="252" y="475.5" font-family="monospace" font-size="13" fill="#222">
                <tspan x="252" y="475.5">return false</tspan>
            </text>
                
            </g>
                <g>
                   <rect x="508.6" y="455.5" width="209.4" height="30" rx="2" ry="2" style="fill:#C5E1A5; stroke:#444; stroke-width:1"></rect>
                   <title>symbolTable.push(label)</title>
            <text x="523.6" y="475.5" font-family="monospace" font-size="13" fill="#222">
                <tspan x="523.6" y="475.5">symbolTable.push(label)</tspan>
            </text>
                   
                   
                </g><g>
            <rect x="167" y="520.5" width="262.79999999999995" height="30" rx="3" ry="3" style="fill:#ce93d8; stroke:#444; stroke-width:1"></rect>                
            <polygon points="137,535.5 167,505.5 197,535.5 167,565.5" style="fill:#ce93d8; stroke:#444; stroke-width:1"></polygon>
            <title>(opcode in directiveTable)</title>
            <text x="212" y="540.5" font-family="monospace" font-size="13" fill="#222">
                <tspan x="212" y="540.5">(opcode in directiveTable)</tspan>
            </text>
            
            <text x="159.2" y="540.5" font-family="monospace" font-size="13" fill="#222">if</text> <text x="174.8" y="567.45" font-family="monospace" font-size="13" fill="#222">+</text> <text x="433.69999999999993" y="533.55" font-family="monospace" font-size="13" fill="#222">-</text>
        </g><g>
            <rect x="217" y="590.5" width="192.6" height="30" rx="3" ry="3" style="fill:#ce93d8; stroke:#444; stroke-width:1"></rect>                
            <polygon points="187,605.5 217,575.5 247,605.5 217,635.5" style="fill:#ce93d8; stroke:#444; stroke-width:1"></polygon>
            <title>(opcode == 'end')</title>
            <text x="262" y="610.5" font-family="monospace" font-size="13" fill="#222">
                <tspan x="262" y="610.5">(opcode == 'end')</tspan>
            </text>
            
            <text x="209.2" y="610.5" font-family="monospace" font-size="13" fill="#222">if</text> <text x="224.8" y="637.45" font-family="monospace" font-size="13" fill="#222">+</text> <text x="413.5" y="603.55" font-family="monospace" font-size="13" fill="#222">-</text>
        </g>
            <g>
                <rect x="237" y="645.5" width="115.80000000000001" height="30" rx="3" ry="3" style="fill:#90caf9; stroke:#444; stroke-width:1"></rect>
                
                <line x1="352.8" y1="655.5" x2="357.8" y2="655.5" style="fill:#a5d6a7; stroke:#444; stroke-width:1"></line>
                
                <line x1="352.8" y1="665.5" x2="357.8" y2="665.5" style="fill:#a5d6a7; stroke:#444; stroke-width:1"></line>

                <path d="M357.8, 649.5 L373.8, 660.5 L357.8, 671.5 Z" fill="#a5d6a7" stroke="#444" stroke-width="1"></path>
                             
                <title>return true</title>
            <text x="252" y="665.5" font-family="monospace" font-size="13" fill="#222">
                <tspan x="252" y="665.5">return true</tspan>
            </text>
                
            </g><g>
            <rect x="499.6" y="660.5" width="223.79999999999998" height="30" rx="3" ry="3" style="fill:#ce93d8; stroke:#444; stroke-width:1"></rect>                
            <polygon points="469.6,675.5 499.6,645.5 529.6,675.5 499.6,705.5" style="fill:#ce93d8; stroke:#444; stroke-width:1"></polygon>
            <title>(opcode == 'segment')</title>
            <text x="544.6" y="680.5" font-family="monospace" font-size="13" fill="#222">
                <tspan x="544.6" y="680.5">(opcode == 'segment')</tspan>
            </text>
            
            <text x="491.8" y="680.5" font-family="monospace" font-size="13" fill="#222">if</text> <text x="507.40000000000003" y="707.45" font-family="monospace" font-size="13" fill="#222">+</text> <text x="727.3" y="673.55" font-family="monospace" font-size="13" fill="#222">-</text>
        </g>
                <g>
                   <rect x="519.6" y="715.5" width="178.2" height="30" rx="2" ry="2" style="fill:#C5E1A5; stroke:#444; stroke-width:1"></rect>
                   <title>updateSymbolTable()</title>
            <text x="534.6" y="735.5" font-family="monospace" font-size="13" fill="#222">
                <tspan x="534.6" y="735.5">updateSymbolTable()</tspan>
            </text>
                   
                   
                </g>
                <g>
                   <rect x="519.6" y="764" width="76.8" height="30" rx="3" ry="3" style="fill:#90caf9; stroke:#444; stroke-width:1"></rect>
                   <title>lc = 0</title>
            <text x="534.6" y="784" font-family="monospace" font-size="13" fill="#222">
                <tspan x="534.6" y="784">lc = 0</tspan>
            </text>
                   
                   
                </g>
                <g>
                   <rect x="783.4" y="715.5" width="170.4" height="30" rx="2" ry="2" style="fill:#C5E1A5; stroke:#444; stroke-width:1"></rect>
                   <title>updateSymbolTabe()</title>
            <text x="798.4" y="735.5" font-family="monospace" font-size="13" fill="#222">
                <tspan x="798.4" y="735.5">updateSymbolTabe()</tspan>
            </text>
                   
                   
                </g>
                <g>
                   <rect x="783.4" y="764" width="108" height="30" rx="3" ry="3" style="fill:#90caf9; stroke:#444; stroke-width:1"></rect>
                   <title>lc += size</title>
            <text x="798.4" y="784" font-family="monospace" font-size="13" fill="#222">
                <tspan x="798.4" y="784">lc += size</tspan>
            </text>
                   
                   
                </g><g>
            <rect x="1043.8" y="590.5" width="333" height="30" rx="3" ry="3" style="fill:#ce93d8; stroke:#444; stroke-width:1"></rect>                
            <polygon points="1013.8,605.5 1043.8,575.5 1073.8,605.5 1043.8,635.5" style="fill:#ce93d8; stroke:#444; stroke-width:1"></polygon>
            <title>(opcode in machineInstructionTable)</title>
            <text x="1088.8" y="610.5" font-family="monospace" font-size="13" fill="#222">
                <tspan x="1088.8" y="610.5">(opcode in machineInstructionTable)</tspan>
            </text>
            
            <text x="1036" y="610.5" font-family="monospace" font-size="13" fill="#222">if</text> <text x="1051.6" y="637.45" font-family="monospace" font-size="13" fill="#222">+</text> <text x="1380.7" y="603.55" font-family="monospace" font-size="13" fill="#222">-</text>
        </g>
                <g>
                   <rect x="1063.8" y="645.5" width="108" height="30" rx="3" ry="3" style="fill:#90caf9; stroke:#444; stroke-width:1"></rect>
                   <title>lc += size</title>
            <text x="1078.8" y="665.5" font-family="monospace" font-size="13" fill="#222">
                <tspan x="1078.8" y="665.5">lc += size</tspan>
            </text>
                   
                   
                </g>
            <g>
                <rect x="1436.8" y="645.5" width="123.6" height="30" rx="3" ry="3" style="fill:#90caf9; stroke:#444; stroke-width:1"></rect>
                
                <line x1="1560.3999999999999" y1="655.5" x2="1565.3999999999999" y2="655.5" style="fill:#a5d6a7; stroke:#444; stroke-width:1"></line>
                
                <line x1="1560.3999999999999" y1="665.5" x2="1565.3999999999999" y2="665.5" style="fill:#a5d6a7; stroke:#444; stroke-width:1"></line>

                <path d="M1565.3999999999999, 649.5 L1581.3999999999999, 660.5 L1565.3999999999999, 671.5 Z" fill="#a5d6a7" stroke="#444" stroke-width="1"></path>
                             
                <title>return false</title>
            <text x="1451.8" y="665.5" font-family="monospace" font-size="13" fill="#222">
                <tspan x="1451.8" y="665.5">return false</tspan>
            </text>
                
            </g>
            <g>
               <rect x="25" y="13.75" width="216.6" height="24" style="fill:#fff59d; stroke:#444; stroke-width:1"></rect>
               <circle cx="25" cy="25" r="15" style="fill:#fff59d; stroke:#444; stroke-width:1"></circle>
               <title>Program: source module</title>
            <text x="55" y="30" font-family="monospace" font-size="13" fill="#222">
                <tspan x="55" y="30">Program: source module</tspan>
            </text>
            </g>
            <g>
               <path d="M25, 40 L25 91 Q25 95
                29 95
                L42 95 " style="fill:none; stroke:#444; stroke-width:1"></path>
               <path d="M42, 92 L50, 95 L42, 98 Z" fill="#333"></path>
            </g>
            <g>
               <path d="M68.5, 110 L68.5 139.5 Q68.5 143.5
                72.5 143.5
                L79 143.5 " style="fill:none; stroke:#444; stroke-width:1"></path>
               <path d="M79, 140.5 L87, 143.5 L79, 146.5 Z" fill="#333"></path>
            </g>
            <g>
               <path d="M68.5, 110 L68.5 223 Q68.5 227
                72.5 227
                L79 227 " style="fill:none; stroke:#444; stroke-width:1"></path>
               <path d="M79, 224 L87, 227 L79, 230 Z" fill="#333"></path>
            </g>
            <g>
               <path d="M117, 257 L117 278 Q117 282
                121 282
                L129 282 " style="fill:none; stroke:#444; stroke-width:1"></path>
               <path d="M129, 279 L137, 282 L129, 285 Z" fill="#333"></path>
            </g>
            <g>
               <path d="M117, 257 L117 341.5 Q117 345.5
                121 345.5
                L129 345.5 " style="fill:none; stroke:#444; stroke-width:1"></path>
               <path d="M129, 342.5 L137, 345.5 L129, 348.5 Z" fill="#333"></path>
            </g>
            <g>
               <path d="M167, 375.5 L167 411.5 Q167 415.5
                171 415.5
                L179 415.5 " style="fill:none; stroke:#444; stroke-width:1"></path>
               <path d="M179, 412.5 L187, 415.5 L179, 418.5 Z" fill="#333"></path>
            </g>
            <g>
               <path d="M217, 445.5 L217 466.5 Q217 470.5
                221 470.5
                L229 470.5 " style="fill:none; stroke:#444; stroke-width:1"></path>
               <path d="M229, 467.5 L237, 470.5 L229, 473.5 Z" fill="#333"></path>
            </g>
            <g>
               <path d="M448.6, 415.5 L484.6 415.5  Q488.6 415.5
                488.6 419.5
                L488.6 462.5 Q488.6 470.5
                492.6 470.5
                L500.6 470.5 " style="fill:none; stroke:#444; stroke-width:1"></path>
               <path d="M500.6, 467.5 L508.6, 470.5 L500.6, 473.5 Z" fill="#333"></path>
            </g>
            <g>
               <path d="M117, 257 L117 531.5 Q117 535.5
                121 535.5
                L129 535.5 " style="fill:none; stroke:#444; stroke-width:1"></path>
               <path d="M129, 532.5 L137, 535.5 L129, 538.5 Z" fill="#333"></path>
            </g>
            <g>
               <path d="M167, 565.5 L167 601.5 Q167 605.5
                171 605.5
                L179 605.5 " style="fill:none; stroke:#444; stroke-width:1"></path>
               <path d="M179, 602.5 L187, 605.5 L179, 608.5 Z" fill="#333"></path>
            </g>
            <g>
               <path d="M217, 635.5 L217 656.5 Q217 660.5
                221 660.5
                L229 660.5 " style="fill:none; stroke:#444; stroke-width:1"></path>
               <path d="M229, 657.5 L237, 660.5 L229, 663.5 Z" fill="#333"></path>
            </g>
            <g>
               <path d="M409.6, 605.5 L445.6 605.5  Q449.6 605.5
                449.6 609.5
                L449.6 667.5 Q449.6 675.5
                453.6 675.5
                L461.6 675.5 " style="fill:none; stroke:#444; stroke-width:1"></path>
               <path d="M461.6, 672.5 L469.6, 675.5 L461.6, 678.5 Z" fill="#333"></path>
            </g>
            <g>
               <path d="M499.6, 705.5 L499.6 726.5 Q499.6 730.5
                503.6 730.5
                L511.6 730.5 " style="fill:none; stroke:#444; stroke-width:1"></path>
               <path d="M511.6, 727.5 L519.6, 730.5 L511.6, 733.5 Z" fill="#333"></path>
            </g>
            <g>
               <path d="M499.6, 705.5 L499.6 775 Q499.6 779
                503.6 779
                L511.6 779 " style="fill:none; stroke:#444; stroke-width:1"></path>
               <path d="M511.6, 776 L519.6, 779 L511.6, 782 Z" fill="#333"></path>
            </g>
            <g>
               <path d="M723.4, 675.5 L759.4 675.5  Q763.4 675.5
                763.4 679.5
                L763.4 722.5 Q763.4 730.5
                767.4 730.5
                L775.4 730.5 " style="fill:none; stroke:#444; stroke-width:1"></path>
               <path d="M775.4, 727.5 L783.4, 730.5 L775.4, 733.5 Z" fill="#333"></path>
            </g>
            <g>
               <path d="M723.4, 675.5 L759.4 675.5  Q763.4 675.5
                763.4 679.5
                L763.4 771 Q763.4 779
                767.4 779
                L775.4 779 " style="fill:none; stroke:#444; stroke-width:1"></path>
               <path d="M775.4, 776 L783.4, 779 L775.4, 782 Z" fill="#333"></path>
            </g>
            <g>
               <path d="M429.79999999999995, 535.5 L989.8 535.5  Q993.8 535.5
                993.8 539.5
                L993.8 597.5 Q993.8 605.5
                997.8 605.5
                L1005.8 605.5 " style="fill:none; stroke:#444; stroke-width:1"></path>
               <path d="M1005.8, 602.5 L1013.8, 605.5 L1005.8, 608.5 Z" fill="#333"></path>
            </g>
            <g>
               <path d="M1043.8, 635.5 L1043.8 656.5 Q1043.8 660.5
                1047.8 660.5
                L1055.8 660.5 " style="fill:none; stroke:#444; stroke-width:1"></path>
               <path d="M1055.8, 657.5 L1063.8, 660.5 L1055.8, 663.5 Z" fill="#333"></path>
            </g>
            <g>
               <path d="M1376.8, 605.5 L1412.8 605.5  Q1416.8 605.5
                1416.8 609.5
                L1416.8 652.5 Q1416.8 660.5
                1420.8 660.5
                L1428.8 660.5 " style="fill:none; stroke:#444; stroke-width:1"></path>
               <path d="M1428.8, 657.5 L1436.8, 660.5 L1428.8, 663.5 Z" fill="#333"></path>
            </g>
            <g>
               <path d="M1581.3999999999999, 660.5 L1597.3999999999999 660.5  Q1601.3999999999999 660.5
                1601.3999999999999 656.5
                L1601.3999999999999 185 Q1601.3999999999999 177
                1597.3999999999999 177
                L125 177  Q117 177
                117 181
                L117 189" style="fill:none; stroke:#444; stroke-width:1"></path>
               <path d="M114, 189 L117, 197 L120, 189 Z" fill="#333"></path>
            </g>
            </svg>